<svg width="20" height="20" viewBox="0 0 20 20" fill="none" xmlns="http://www.w3.org/2000/svg">
<path d="M19.3734 0H12.2934C11.9473 0 11.6667 0.210426 11.6667 0.47V19.53C11.6667 19.7896 11.9473 20 12.2934 20H19.3734C19.7195 20 20 19.7896 20 19.53V0.47C20 0.210426 19.7195 0 19.3734 0Z" fill="white"/>
<path d="M7.70667 0H0.626667C0.280568 0 0 0.210426 0 0.47V19.53C0 19.7896 0.280568 20 0.626667 20H7.70667C8.05276 20 8.33333 19.7896 8.33333 19.53V0.47C8.33333 0.210426 8.05276 0 7.70667 0Z" fill="white"/>
</svg>
